name Walk6.mot
datacolumns 19
datarows 10
range 1.31900000 1.32800000
endheader

                time	   L_ground_force_vx	   L_ground_force_vy	   L_ground_force_vz	   L_ground_force_px	   L_ground_force_py	   L_ground_force_pz	   R_ground_force_vx	   R_ground_force_vy	   R_ground_force_vz	   R_ground_force_px	   R_ground_force_py	   R_ground_force_pz	   L_ground_torque_x	   L_ground_torque_y	   L_ground_torque_z	   R_ground_torque_x	   R_ground_torque_y	   R_ground_torque_z	
          1.31900000	         30.14572745	        635.32505203	         38.97487497	         -0.32116840	          0.00000000	         -0.02632178	          0.00000000	          0.00000000	          0.00000000	          0.00000000	          0.00000000	          0.00000000	          0.00000000	         -1.68558826	          0.00000000	          0.00000000	          0.00000000	          0.00000000	
          1.32000000	         30.39692685	        635.99076424	         39.19711266	         -0.32048174	          0.00000000	         -0.02629450	          0.00000000	          0.00000000	          0.00000000	          0.00000000	          0.00000000	          0.00000000	          0.00000000	         -1.68900155	          0.00000000	          0.00000000	          0.00000000	          0.00000000	
          1.32100000	         30.62316645	        636.73838627	         39.41951579	         -0.31978374	          0.00000000	         -0.02630479	          0.00000000	          0.00000000	          0.00000000	          0.00000000	          0.00000000	          0.00000000	          0.00000000	         -1.68729800	          0.00000000	          0.00000000	          0.00000000	          0.00000000	
          1.32200000	         30.82700137	        637.57283043	         39.62906159	         -0.31908057	          0.00000000	         -0.02636179	          0.00000000	          0.00000000	          0.00000000	          0.00000000	          0.00000000	          0.00000000	          0.00000000	         -1.67965459	          0.00000000	          0.00000000	          0.00000000	          0.00000000	
          1.32300000	         31.00933430	        638.48097762	         39.81906511	         -0.31838088	          0.00000000	         -0.02647418	          0.00000000	          0.00000000	          0.00000000	          0.00000000	          0.00000000	          0.00000000	          0.00000000	         -1.67009531	          0.00000000	          0.00000000	          0.00000000	          0.00000000	
          1.32400000	         31.17872209	        639.45299157	         39.99093629	         -0.31769469	          0.00000000	         -0.02663832	          0.00000000	          0.00000000	          0.00000000	          0.00000000	          0.00000000	          0.00000000	          0.00000000	         -1.66469799	          0.00000000	          0.00000000	          0.00000000	          0.00000000	
          1.32500000	         31.33886508	        640.48337238	         40.15597881	         -0.31702248	          0.00000000	         -0.02680684	          0.00000000	          0.00000000	          0.00000000	          0.00000000	          0.00000000	          0.00000000	          0.00000000	         -1.66533498	          0.00000000	          0.00000000	          0.00000000	          0.00000000	
          1.32600000	         31.47835428	        641.54729042	         40.32830134	         -0.31635292	          0.00000000	         -0.02692556	          0.00000000	          0.00000000	          0.00000000	          0.00000000	          0.00000000	          0.00000000	          0.00000000	         -1.67144029	          0.00000000	          0.00000000	          0.00000000	          0.00000000	
          1.32700000	         31.58514243	        642.59708880	         40.51375208	         -0.31567740	          0.00000000	         -0.02699296	          0.00000000	          0.00000000	          0.00000000	          0.00000000	          0.00000000	          0.00000000	          0.00000000	         -1.68374952	          0.00000000	          0.00000000	          0.00000000	          0.00000000	
          1.32800000	         31.66063375	        643.58887264	         40.71130484	         -0.31499598	          0.00000000	         -0.02703856	          0.00000000	          0.00000000	          0.00000000	          0.00000000	          0.00000000	          0.00000000	          0.00000000	         -1.70144931	          0.00000000	          0.00000000	          0.00000000	          0.00000000	
